<?xml version="1.0" encoding="UTF-8"?>
<svg width="256" height="256" shape-rendering="crispEdges" version="1.1" xmlns="http://www.w3.org/2000/svg">
<desc>placeholder</desc>
<rect width="256" height="256" fill="#fff"/>
<path fill="#b0b0b0" d="M12 12h7v7H12V12M19 12h7v7H19V12M26 12h7v7H26V12M33 12h7v7H33V12M40 12h7v7H40V12M47 12h7v7H47V12M54 12h7v7H54V12M68 12h7v7H68V12M89 12h7v7H89V12M110 12h7v7H110V12M124 12h7v7H124V12M145 12h7v7H145V12M152 12h7v7H152V12M166 12h7v7H166V12M173 12h7v7H173V12M194 12h7v7H194V12M201 12h7v7H201V12M208 12h7v7H208V12M215 12h7v7H215V12M222 12h7v7H222V12M229 12h7v7H229V12M236 12h7v7H236V12M12 19h7v7H12V19M54 19h7v7H54V19M68 19h7v7H68V19M75 19h7v7H75V19M82 19h7v7H82V19M89 19h7v7H89V19M96 19h7v7H96V19M110 19h7v7H110V19M124 19h7v7H124V19M131 19h7v7H131V19M159 19h7v7H159V19M166 19h7v7H166V19M173 19h7v7H173V19M180 19h7v7H180V19M194 19h7v7H194V19M236 19h7v7H236V19M12 26h7v7H12V26M26 26h7v7H26V26M33 26h7v7H33V26M40 26h7v7H40V26M54 26h7v7H54V26M75 26h7v7H75V26M82 26h7v7H82V26M103 26h7v7H103V26M110 26h7v7H110V26M117 26h7v7H117V26M145 26h7v7H145V26M180 26h7v7H180V26M194 26h7v7H194V26M208 26h7v7H208V26M215 26h7v7H215V26M222 26h7v7H222V26M236 26h7v7H236V26M12 33h7v7H12V33M26 33h7v7H26V33M33 33h7v7H33V33M40 33h7v7H40V33M54 33h7v7H54V33M68 33h7v7H68V33M96 33h7v7H96V33M131 33h7v7H131V33M138 33h7v7H138V33M145 33h7v7H145V33M152 33h7v7H152V33M166 33h7v7H166V33M173 33h7v7H173V33M180 33h7v7H180V33M194 33h7v7H194V33M208 33h7v7H208V33M215 33h7v7H215V33M222 33h7v7H222V33M236 33h7v7H236V33M12 40h7v7H12V40M26 40h7v7H26V40M33 40h7v7H33V40M40 40h7v7H40V40M54 40h7v7H54V40M75 40h7v7H75V40M82 40h7v7H82V40M89 40h7v7H89V40M96 40h7v7H96V40M124 40h7v7H124V40M131 40h7v7H131V40M145 40h7v7H145V40M166 40h7v7H166V40M180 40h7v7H180V40M194 40h7v7H194V40M208 40h7v7H208V40M215 40h7v7H215V40M222 40h7v7H222V40M236 40h7v7H236V40M12 47h7v7H12V47M54 47h7v7H54V47M75 47h7v7H75V47M103 47h7v7H103V47M117 47h7v7H117V47M124 47h7v7H124V47M138 47h7v7H138V47M145 47h7v7H145V47M159 47h7v7H159V47M166 47h7v7H166V47M194 47h7v7H194V47M236 47h7v7H236V47M12 54h7v7H12V54M19 54h7v7H19V54M26 54h7v7H26V54M33 54h7v7H33V54M40 54h7v7H40V54M47 54h7v7H47V54M54 54h7v7H54V54M68 54h7v7H68V54M82 54h7v7H82V54M96 54h7v7H96V54M110 54h7v7H110V54M124 54h7v7H124V54M138 54h7v7H138V54M152 54h7v7H152V54M166 54h7v7H166V54M180 54h7v7H180V54M194 54h7v7H194V54M201 54h7v7H201V54M208 54h7v7H208V54M215 54h7v7H215V54M222 54h7v7H222V54M229 54h7v7H229V54M236 54h7v7H236V54M68 61h7v7H68V61M75 61h7v7H75V61M82 61h7v7H82V61M89 61h7v7H89V61M96 61h7v7H96V61M117 61h7v7H117V61M124 61h7v7H124V61M131 61h7v7H131V61M152 61h7v7H152V61M166 61h7v7H166V61M173 61h7v7H173V61M180 61h7v7H180V61M12 68h7v7H12V68M26 68h7v7H26V68M33 68h7v7H33V68M47 68h7v7H47V68M54 68h7v7H54V68M61 68h7v7H61V68M82 68h7v7H82V68M96 68h7v7H96V68M110 68h7v7H110V68M117 68h7v7H117V68M124 68h7v7H124V68M131 68h7v7H131V68M138 68h7v7H138V68M145 68h7v7H145V68M159 68h7v7H159V68M194 68h7v7H194V68M215 68h7v7H215V68M229 68h7v7H229V68M236 68h7v7H236V68M26 75h7v7H26V75M33 75h7v7H33V75M40 75h7v7H40V75M89 75h7v7H89V75M96 75h7v7H96V75M103 75h7v7H103V75M110 75h7v7H110V75M131 75h7v7H131V75M138 75h7v7H138V75M145 75h7v7H145V75M152 75h7v7H152V75M159 75h7v7H159V75M173 75h7v7H173V75M180 75h7v7H180V75M194 75h7v7H194V75M201 75h7v7H201V75M215 75h7v7H215V75M222 75h7v7H222V75M236 75h7v7H236V75M12 82h7v7H12V82M19 82h7v7H19V82M26 82h7v7H26V82M54 82h7v7H54V82M61 82h7v7H61V82M68 82h7v7H68V82M75 82h7v7H75V82M82 82h7v7H82V82M103 82h7v7H103V82M124 82h7v7H124V82M131 82h7v7H131V82M138 82h7v7H138V82M159 82h7v7H159V82M173 82h7v7H173V82M180 82h7v7H180V82M187 82h7v7H187V82M194 82h7v7H194V82M201 82h7v7H201V82M208 82h7v7H208V82M215 82h7v7H215V82M229 82h7v7H229V82M236 82h7v7H236V82M19 89h7v7H19V89M33 89h7v7H33V89M47 89h7v7H47V89M68 89h7v7H68V89M75 89h7v7H75V89M89 89h7v7H89V89M117 89h7v7H117V89M138 89h7v7H138V89M152 89h7v7H152V89M166 89h7v7H166V89M173 89h7v7H173V89M201 89h7v7H201V89M215 89h7v7H215V89M236 89h7v7H236V89M19 96h7v7H19V96M40 96h7v7H40V96M54 96h7v7H54V96M61 96h7v7H61V96M68 96h7v7H68V96M110 96h7v7H110V96M131 96h7v7H131V96M152 96h7v7H152V96M173 96h7v7H173V96M187 96h7v7H187V96M201 96h7v7H201V96M208 96h7v7H208V96M215 96h7v7H215V96M26 103h7v7H26V103M33 103h7v7H33V103M61 103h7v7H61V103M68 103h7v7H68V103M75 103h7v7H75V103M103 103h7v7H103V103M110 103h7v7H110V103M138 103h7v7H138V103M145 103h7v7H145V103M180 103h7v7H180V103M201 103h7v7H201V103M222 103h7v7H222V103M229 103h7v7H229V103M33 110h7v7H33V110M40 110h7v7H40V110M54 110h7v7H54V110M61 110h7v7H61V110M75 110h7v7H75V110M82 110h7v7H82V110M89 110h7v7H89V110M96 110h7v7H96V110M110 110h7v7H110V110M145 110h7v7H145V110M152 110h7v7H152V110M166 110h7v7H166V110M180 110h7v7H180V110M194 110h7v7H194V110M201 110h7v7H201V110M215 110h7v7H215V110M222 110h7v7H222V110M12 117h7v7H12V117M19 117h7v7H19V117M26 117h7v7H26V117M33 117h7v7H33V117M40 117h7v7H40V117M47 117h7v7H47V117M68 117h7v7H68V117M75 117h7v7H75V117M82 117h7v7H82V117M89 117h7v7H89V117M103 117h7v7H103V117M124 117h7v7H124V117M138 117h7v7H138V117M159 117h7v7H159V117M166 117h7v7H166V117M180 117h7v7H180V117M187 117h7v7H187V117M194 117h7v7H194V117M215 117h7v7H215V117M222 117h7v7H222V117M12 124h7v7H12V124M26 124h7v7H26V124M47 124h7v7H47V124M54 124h7v7H54V124M68 124h7v7H68V124M75 124h7v7H75V124M82 124h7v7H82V124M89 124h7v7H89V124M110 124h7v7H110V124M117 124h7v7H117V124M138 124h7v7H138V124M152 124h7v7H152V124M159 124h7v7H159V124M166 124h7v7H166V124M173 124h7v7H173V124M187 124h7v7H187V124M194 124h7v7H194V124M208 124h7v7H208V124M215 124h7v7H215V124M222 124h7v7H222V124M40 131h7v7H40V131M47 131h7v7H47V131M89 131h7v7H89V131M103 131h7v7H103V131M110 131h7v7H110V131M117 131h7v7H117V131M138 131h7v7H138V131M152 131h7v7H152V131M159 131h7v7H159V131M166 131h7v7H166V131M173 131h7v7H173V131M180 131h7v7H180V131M194 131h7v7H194V131M208 131h7v7H208V131M215 131h7v7H215V131M229 131h7v7H229V131M236 131h7v7H236V131M12 138h7v7H12V138M26 138h7v7H26V138M33 138h7v7H33V138M40 138h7v7H40V138M54 138h7v7H54V138M96 138h7v7H96V138M103 138h7v7H103V138M110 138h7v7H110V138M117 138h7v7H117V138M124 138h7v7H124V138M131 138h7v7H131V138M138 138h7v7H138V138M159 138h7v7H159V138M166 138h7v7H166V138M187 138h7v7H187V138M194 138h7v7H194V138M201 138h7v7H201V138M208 138h7v7H208V138M222 138h7v7H222V138M229 138h7v7H229V138M12 145h7v7H12V145M19 145h7v7H19V145M26 145h7v7H26V145M75 145h7v7H75V145M96 145h7v7H96V145M110 145h7v7H110V145M131 145h7v7H131V145M145 145h7v7H145V145M166 145h7v7H166V145M173 145h7v7H173V145M208 145h7v7H208V145M229 145h7v7H229V145M236 145h7v7H236V145M12 152h7v7H12V152M40 152h7v7H40V152M47 152h7v7H47V152M54 152h7v7H54V152M61 152h7v7H61V152M68 152h7v7H68V152M75 152h7v7H75V152M89 152h7v7H89V152M117 152h7v7H117V152M124 152h7v7H124V152M131 152h7v7H131V152M138 152h7v7H138V152M159 152h7v7H159V152M215 152h7v7H215V152M222 152h7v7H222V152M236 152h7v7H236V152M12 159h7v7H12V159M26 159h7v7H26V159M33 159h7v7H33V159M40 159h7v7H40V159M68 159h7v7H68V159M75 159h7v7H75V159M82 159h7v7H82V159M89 159h7v7H89V159M96 159h7v7H96V159M103 159h7v7H103V159M110 159h7v7H110V159M145 159h7v7H145V159M152 159h7v7H152V159M159 159h7v7H159V159M166 159h7v7H166V159M173 159h7v7H173V159M194 159h7v7H194V159M215 159h7v7H215V159M222 159h7v7H222V159M236 159h7v7H236V159M33 166h7v7H33V166M40 166h7v7H40V166M54 166h7v7H54V166M82 166h7v7H82V166M89 166h7v7H89V166M96 166h7v7H96V166M110 166h7v7H110V166M131 166h7v7H131V166M138 166h7v7H138V166M152 166h7v7H152V166M159 166h7v7H159V166M166 166h7v7H166V166M173 166h7v7H173V166M201 166h7v7H201V166M215 166h7v7H215V166M229 166h7v7H229V166M236 166h7v7H236V166M19 173h7v7H19V173M68 173h7v7H68V173M89 173h7v7H89V173M110 173h7v7H110V173M138 173h7v7H138V173M173 173h7v7H173V173M201 173h7v7H201V173M215 173h7v7H215V173M236 173h7v7H236V173M12 180h7v7H12V180M47 180h7v7H47V180M54 180h7v7H54V180M68 180h7v7H68V180M82 180h7v7H82V180M110 180h7v7H110V180M117 180h7v7H117V180M131 180h7v7H131V180M166 180h7v7H166V180M180 180h7v7H180V180M187 180h7v7H187V180M194 180h7v7H194V180M201 180h7v7H201V180M208 180h7v7H208V180M236 180h7v7H236V180M68 187h7v7H68V187M75 187h7v7H75V187M82 187h7v7H82V187M89 187h7v7H89V187M96 187h7v7H96V187M103 187h7v7H103V187M117 187h7v7H117V187M124 187h7v7H124V187M131 187h7v7H131V187M145 187h7v7H145V187M152 187h7v7H152V187M173 187h7v7H173V187M180 187h7v7H180V187M208 187h7v7H208V187M215 187h7v7H215V187M12 194h7v7H12V194M19 194h7v7H19V194M26 194h7v7H26V194M33 194h7v7H33V194M40 194h7v7H40V194M47 194h7v7H47V194M54 194h7v7H54V194M68 194h7v7H68V194M110 194h7v7H110V194M124 194h7v7H124V194M138 194h7v7H138V194M145 194h7v7H145V194M159 194h7v7H159V194M173 194h7v7H173V194M180 194h7v7H180V194M194 194h7v7H194V194M208 194h7v7H208V194M229 194h7v7H229V194M12 201h7v7H12V201M54 201h7v7H54V201M68 201h7v7H68V201M82 201h7v7H82V201M89 201h7v7H89V201M96 201h7v7H96V201M124 201h7v7H124V201M152 201h7v7H152V201M159 201h7v7H159V201M166 201h7v7H166V201M173 201h7v7H173V201M180 201h7v7H180V201M208 201h7v7H208V201M215 201h7v7H215V201M222 201h7v7H222V201M236 201h7v7H236V201M12 208h7v7H12V208M26 208h7v7H26V208M33 208h7v7H33V208M40 208h7v7H40V208M54 208h7v7H54V208M75 208h7v7H75V208M103 208h7v7H103V208M110 208h7v7H110V208M117 208h7v7H117V208M124 208h7v7H124V208M138 208h7v7H138V208M152 208h7v7H152V208M159 208h7v7H159V208M166 208h7v7H166V208M173 208h7v7H173V208M180 208h7v7H180V208M187 208h7v7H187V208M194 208h7v7H194V208M201 208h7v7H201V208M208 208h7v7H208V208M222 208h7v7H222V208M236 208h7v7H236V208M12 215h7v7H12V215M26 215h7v7H26V215M33 215h7v7H33V215M40 215h7v7H40V215M54 215h7v7H54V215M68 215h7v7H68V215M75 215h7v7H75V215M89 215h7v7H89V215M117 215h7v7H117V215M138 215h7v7H138V215M152 215h7v7H152V215M159 215h7v7H159V215M166 215h7v7H166V215M201 215h7v7H201V215M215 215h7v7H215V215M236 215h7v7H236V215M12 222h7v7H12V222M26 222h7v7H26V222M33 222h7v7H33V222M40 222h7v7H40V222M54 222h7v7H54V222M68 222h7v7H68V222M75 222h7v7H75V222M110 222h7v7H110V222M117 222h7v7H117V222M124 222h7v7H124V222M131 222h7v7H131V222M138 222h7v7H138V222M152 222h7v7H152V222M159 222h7v7H159V222M173 222h7v7H173V222M180 222h7v7H180V222M187 222h7v7H187V222M194 222h7v7H194V222M201 222h7v7H201V222M215 222h7v7H215V222M222 222h7v7H222V222M12 229h7v7H12V229M54 229h7v7H54V229M75 229h7v7H75V229M82 229h7v7H82V229M89 229h7v7H89V229M96 229h7v7H96V229M103 229h7v7H103V229M117 229h7v7H117V229M131 229h7v7H131V229M166 229h7v7H166V229M180 229h7v7H180V229M187 229h7v7H187V229M194 229h7v7H194V229M201 229h7v7H201V229M208 229h7v7H208V229M215 229h7v7H215V229M236 229h7v7H236V229M12 236h7v7H12V236M19 236h7v7H19V236M26 236h7v7H26V236M33 236h7v7H33V236M40 236h7v7H40V236M47 236h7v7H47V236M54 236h7v7H54V236M68 236h7v7H68V236M103 236h7v7H103V236M110 236h7v7H110V236M124 236h7v7H124V236M131 236h7v7H131V236M145 236h7v7H145V236M152 236h7v7H152V236M159 236h7v7H159V236M173 236h7v7H173V236M208 236h7v7H208V236M222 236h7v7H222V236"/>
</svg>
